<svg xmlns="http://www.w3.org/2000/svg" width="480" height="560" viewBox="0 0 480 560" fill="none" aria-hidden="true">
  <defs>
    <linearGradient id="bh1" x1="0%" y1="0%" x2="100%" y2="100%">
      <stop offset="0%" style="stop-color:#2a3f7a"/>
      <stop offset="100%" style="stop-color:#1d2d60"/>
    </linearGradient>
    <linearGradient id="bh2" x1="100%" y1="0%" x2="0%" y2="100%">
      <stop offset="0%" style="stop-color:#f6595b;stop-opacity:0.35"/>
      <stop offset="100%" style="stop-color:#f6595b;stop-opacity:0.08"/>
    </linearGradient>
    <filter id="bhg" x="-20%" y="-20%" width="140%" height="140%">
      <feGaussianBlur stdDeviation="24" result="b"/>
      <feMerge><feMergeNode in="b"/><feMergeNode in="SourceGraphic"/></feMerge>
    </filter>
  </defs>
  <rect width="480" height="560" rx="28" fill="url(#bh1)"/>
  <circle cx="380" cy="120" r="140" fill="url(#bh2)" filter="url(#bhg)"/>
  <circle cx="100" cy="420" r="110" fill="#f6595b" opacity="0.12" filter="url(#bhg)"/>
  <rect x="48" y="88" width="384" height="8" rx="4" fill="#fff" opacity="0.12"/>
  <rect x="48" y="116" width="280" height="8" rx="4" fill="#fff" opacity="0.08"/>
  <rect x="48" y="144" width="320" height="8" rx="4" fill="#fff" opacity="0.08"/>
  <rect x="48" y="380" width="384" height="120" rx="16" stroke="rgba(255,255,255,0.2)" stroke-width="2" fill="rgba(255,255,255,0.04)"/>
  <rect x="72" y="420" width="120" height="56" rx="8" fill="#f6595b" opacity="0.25"/>
  <rect x="216" y="404" width="192" height="12" rx="4" fill="#fff" opacity="0.15"/>
  <rect x="216" y="432" width="160" height="12" rx="4" fill="#fff" opacity="0.1"/>
  <rect x="216" y="460" width="176" height="12" rx="4" fill="#fff" opacity="0.1"/>
</svg>
